<svg xmlns="http://www.w3.org/2000/svg" width="504" height="506" viewBox="0 0 504 506"><defs><style>
      .cls-1 {
        fill: #040404;
        fill-rule: evenodd;
      }
    </style></defs><path id="Color_Fill_1" data-name="Color Fill 1" class="cls-1" d="M126,6c41.7-1.143,69.574,9.46,96,23,6.073,3.112,26.694,8.471,23,20-3.928,12.259-35.458-7.748-43-11-38.841-16.749-93.6-20.026-128,4C29.951,72.764,11.25,142.8,26,217c19.609,98.643,49.906,211.8,112,267,10.764,0.47,15.876-1.95,19-9q4.5-27.5,9-55c10.534-44.622,51.2-153.949,114-110,31.762,22.229,47.168,66.973,58,110,4.894,19.438.27,56.232,18,63,17.786,6.5,38.119-34.78,45-46,22.152-36.122,41.054-77.615,55-122,6.614-21.049,7.653-51.348,19-69l10,1,1,3c4.394,11.416-9.489,50.106-13,61-18.843,58.463-39.629,107.564-70,153-9.234,13.815-20.73,42.6-49,36-28.146-6.566-23.028-34.949-29-64-7.7-37.469-32.865-122.236-74-120-39.971,2.173-62.731,77.585-71,116q-3,23.5-6,47c-5.69,15.909-30.168,28.865-49,16-22.522-15.385-35.961-50.859-50-75C35.074,351.347-22.453,180.677,21,80,34.26,49.277,62.33,25.29,94,13ZM352,6c105.763-1.487,188.024,99.254,129,199-22.374,37.809-73.243,77.605-139,64-15.316-3.169-28.636-12.943-41-16-20.3-5.02-42.339,23.484-62,17l-4-2c-3.63-21.01,13.886-42.242,17-63-47.547-61.026-.126-152.943,44-180C312.791,14.7,331.355,14.371,352,6Zm0,17c-23.416,10.22-42.2,11.948-60,26-25.224,19.913-51.967,64.765-40,114,3.593,14.782,13.313,26.955,17,39,4.09,13.361-10.953,36.29-14,48l48-14c11.862,3.109,23.663,13.493,38,17,50.273,12.3,94.818-14.389,115-40C522.587,128.5,459.524,21.9,352,23ZM132,67c15.256-.471,28.844.587,38,6q0.5,3.5,1,7l-5,6c-12.067-.767-23.058-4.958-36-2-33.076,7.561-57.076,40.832-50,87,2.415,15.761,8.011,42.15,3,53l-2,1c-6.9-.166-7.27-1.362-11-4-6.254-57.114-10.3-118.582,30-143C109.511,72.238,120.916,71.834,132,67ZM310,95c20.953-.747,31.845,4.284,40,16q-0.5,4.5-1,9l-3,1c-12.866,3.877-15.22-14.243-33-10-8.653,2.065-9.8,9.542-20,11l-5-2-1-2v-8C294.481,104.423,301.33,100.346,310,95Zm96,0c20.826-.734,31.713,4.526,40,16-0.166,6.9-1.362,7.27-4,11h-1c-11.486-1.072-11.946-8.785-21-11-18.337-4.487-20,12.11-35,10l-1-3q-0.5-4-1-8A188.745,188.745,0,0,1,406,95Zm-96,74c13.309,2.11,20.4,13.019,33,17,33.544,10.6,56.877-6.336,77-17l8,3c1.733,8.484-1.043,10.046-5,15-36.064,16.567-90.528,31.281-119-7C304.146,171.9,305.505,172.294,310,169Z"></path></svg>